<svg xmlns="http://www.w3.org/2000/svg" xmlns:xlink="http://www.w3.org/1999/xlink" width="359" height="359" viewBox="0 0 359 359">
    <defs>
        <path id="s4811ljkda" d="M29.768 83.851C-18.737 158.597-5.877 264.66 54.252 318.224c31.235 27.824 66.515 33.722 79.383 35.702 79.084 12.168 170.278-32.94 204.513-113.46 22.311-52.477 19.74-117.566-10.168-164.286-12.737-19.895-26.869-32.436-33.277-37.714C251.08 2.534 201.44.486 188.487.154c-1.439-.037-2.874-.055-4.316-.055C125.348.099 64.226 30.75 29.768 83.85"/>
        <path id="p9pw20y5lc" d="M0.078 0.041L63.634 0.041 63.634 213.998 0.078 213.998z"/>
        <path id="me68mixf4e" d="M4.628 4.669C1.574 7.717-.098 11.884.004 16.199l4.642 196.539c0 3.438 2.813 6.252 6.251 6.252h338.026c3.438 0 6.25-2.814 6.25-6.252l2.813-194.464c0-3.438-4.046-10.151-11.463-9.647L16.168.07c-.136-.005-.273-.005-.409-.005-4.168 0-8.172 1.652-11.13 4.604"/>
        <path id="c8f7ze25zg" d="M3.35 3.234C1.206 5.343.036 8.228.112 11.213L4.815 196.08c0 3.204 2.658 5.825 5.907 5.825h323.663c3.25 0 5.907-2.621 5.907-5.825l2.652-173.673c-.313-10.452-9.606-14.208-15.239-13.986L11.447.055c-.099-.004-.197-.004-.296-.004-2.921 0-5.728 1.142-7.801 3.183"/>
        <path id="o4uppmk2mi" d="M5.439.017C2.463.017.052 2.083.052 4.881c0 2.378 2.05 4.104 4.578 4.104h151.726c2.529 0 4.607-2.118 4.607-4.497v-.76c0-2.378-2.078-3.71-4.607-3.71H5.439z"/>
        <path id="67ph94uexk" d="M13.214.029c-4.9 0-8.908 3.883-9.042 8.76L.117 156.624c-.141 5.154 4.085 9.374 9.263 9.248l285.692-6.924c4.908-.118 8.825-4.114 8.825-9.002V9.034c0-4.974-4.05-9.005-9.046-9.005H13.214z"/>
        <path id="2lhsxjauwm" d="M.076 9.307l5.797 2.587c5.118-.45 9.063-1.907 12.092-3.756-1.823-4.148-3.675-6.61-5.13-8.051C8.072 6.219.077 9.307.077 9.307"/>
        <path id="4kay7vbevp" d="M.11 17.833c1.488 1.622 3.383 4.39 5.25 9.058 7.736-5.19 9.618-13.13 9.618-13.13L6.269.065C5.7 7.79 3.104 13.597.11 17.833"/>
        <path id="qoab95mjns" d="M13.09.321C8.31 1.917 2.6 5.926.122 7.77c2.722.146 6.8.273 11.012.071 4.611-.222 6.2-1.21 6.744-1.918C17.481 1.882 16.37.116 16.37.116l-3.28.205z"/>
        <path id="v0omnifvvu" d="M11.23 1.85c-4.153.19-8.174.07-10.858-.067l-.033.024C-.1 2.117.1 2.801.637 2.83c.61.032 1.316.046 2.09.046h.007c4.39 0 10.915-.45 13.805-.668.838-.063 1.46-.792 1.392-1.624-.015-.183-.033-.357-.051-.531-.536.664-2.103 1.59-6.65 1.798"/>
        <path id="v5oot3e5ox" d="M1.135.612c-.358.803-.82 3.946-1.109 6.12-.06.453.028.885.216 1.24l7.687-.316c.005-.18-.03-.366-.116-.54-.74-1.516-1.834-3.75-2.23-4.534C4.964 1.35 3.616.612 3.616.612s-.853-.56-1.588-.56c-.367 0-.705.14-.892.56"/>
        <path id="80jmn0zw8z" d="M.004.311c.287.417.804.697 1.4.682L7.05.853c.506-.013.865-.384.878-.792L.004.31z"/>
        <path id="bdb27nlwaC" d="M.041 1.152c.076.242 1.21 5.48 1.707 7.778.137.635.738 1.081 1.418 1.049.372-.018.804-.05 1.257-.106.804-.099 1.417-.738 1.448-1.51.08-2.013.12-5.88-.657-7.377-.338-.654-.98-.878-1.7-.878C1.959.108.041 1.152.041 1.152"/>
        <path id="ci630jt8eE" d="M.648 6.599c.063.692.608 1.23 1.288 1.286.451.037.896.044 1.271.04.58-.008.995-.453 1.16-1.02.729-2.513.054-5.07.536-5.054L.054.081.648 6.6z"/>
        <path id="l1s1r75xuG" d="M.063 3C.27 4.008 7.595 46.589 8.039 68.62c.008.37.28.68.648.731.93.13 2.74.295 4.496-.03.24-.043.422-.24.437-.484.256-4.106 2.315-38.822-.207-55.164 0 0 20.826 43.685 23.983 55.73.077.294.347.491.65.475.892-.047 2.747-.207 4.22-.747.528-.193.828-.747.695-1.291C41.197 60.63 28.837 10.964 20.444.02L.063 3z"/>
        <path id="7dbla7pkgI" d="M.119.1C.027.19.025.336.115.43l2.378 2.43c.046.048.106.071.167.071.059 0 .117-.022.163-.067.092-.09.093-.237.004-.329L.448.103C.403.056.342.033.282.033.223.033.164.055.119.1"/>
        <path id="8m49huitsL" d="M2.316 3.26c-.558.151-.99.56-1.317 1.155-2.1 3.816.063 15.264.063 15.264C4.747 34.03 9.06 46.669 13.994 57.617c6.585 1.002 13.26-.278 19.993-3.039-2.995-10.977-4.586-29.843-5.75-51.104-.1-1.834-1.519-3.283-3.288-3.393-.722-.044-1.46-.065-2.212-.065-7.268 0-15.665 1.953-20.42 3.244"/>
        <path id="9u4ccrm52N" d="M.275 2.094L.037 13.152c-.013.611.361 1.174.932 1.364 3.468 1.154 6.65-.104 8.142-.885.546-.286.866-.875.8-1.497C9.504 8.303 8.141.02 8.141.02L.275 2.094z"/>
        <path id="xx5m0ogeuQ" d="M.257 9.667c-.18 3.298-.88 5.438 2.874 6.102 3.753.664 6.916-1.236 8.629-4.521 0 0 2.684-5.062 2.082-7.135C13.24 2.04 3.13.085 3.13.085S.438 6.37.257 9.667"/>
        <path id="hc1a8q4lkT" d="M.019 1.135C2.556 8.787 1.127 16.99 1.127 16.99l3.345.959S8.794 12.425 7.805.168C7.115.055 6.433.006 5.771.006c-2.294 0-4.35.589-5.752 1.13"/>
        <path id="27n4a95h3W" d="M.062.574l.57 17.97c9.505 1.269 14.003 6.67 16.054 12.384 1.912-.68 4.973-1.441 8.24-.946-.117-1.348-.302-2.774-.577-4.29C21.958 12.472 4.892 2.304.876.077.79.03.7.007.61.007.317.007.051.248.062.574"/>
        <path id="vnq2lfqi6Y" d="M1.456.03C.018.177.002 2.022.147 3.22c.075.618.446 1.172 1.026 1.513 2.782 1.756 5.257 3.101 6.77 3.16l-1.279-1.1-.792-2.887S3.716.021 1.625.021c-.056 0-.112.003-.169.008"/>
        <path id="s4x14yj4rab" d="M1.303 1.992c-4.3 5.59 3.784 13.166 11.12 11.026.45 1.254-.792 3.731-.792 3.731h1.406c.14 0 .25.124.241.26l-.166 2.626c-.007.114.07.215.183.243.422.106 1.54.213 3.43-.772 1.848-.963 1.135-1.685.657-1.99-.136-.085-.137-.276-.012-.376 2.639-2.106 3.13-4.666 1.927-5.653-.692-.567-1.21-.477-1.533-.285-.164.098-.369-.005-.374-.192-.003-.132-.018-.258-.032-.384.33-.867-1.628-4.434-7.683-5.16-.661-.135-1.229-.295-1.712-.468C5.117 3.302 4.89.008 3.616.008 3.1.009 2.41.553 1.303 1.993"/>
        <path id="n7jpkvo64ad" d="M.107 3.16L.483 4.9C1.658 4.75 3.879 1.419 2.417.306 2.237.17 2.067.11 1.906.11.759.11.107 3.16.107 3.16"/>
        <path id="p313rw8tcag" d="M21.22 4.534L3.005 26.124C-1.47 31.43-.8 39.365 4.505 43.844l79.545 67.168c5.305 4.48 13.235 3.809 17.713-1.499l18.213-21.59c4.477-5.307 3.806-13.241-1.499-17.72L38.932 3.034c-2.36-1.992-5.237-2.966-8.1-2.966-3.575 0-7.127 1.518-9.613 4.465"/>
        <path id="n3y1l9yf9ai" d="M1.196 1.846C-.577 3.92-.312 7.02 1.789 8.77c2.1 1.75 5.241 1.487 7.014-.586 1.774-2.073 1.508-5.172-.593-6.922C7.276.483 6.136.102 5.002.102c-1.416 0-2.822.593-3.806 1.744"/>
        <path id="x3hp053hgak" d="M1.238 1.825c-1.765 2.091-1.5 5.218.59 6.984 2.093 1.765 5.22 1.5 6.985-.591 1.765-2.092 1.5-5.219-.59-6.984C7.291.448 6.156.064 5.027.064c-1.41 0-2.81.599-3.79 1.76"/>
        <path id="uyuarafd2am" d="M1.366 1.796c-1.919 2.092-1.631 5.22.643 6.985 2.274 1.765 5.673 1.5 7.592-.591 1.919-2.092 1.631-5.219-.643-6.984C7.948.42 6.713.037 5.486.036c-1.532 0-3.054.599-4.12 1.76"/>
        <path id="l6spgrdchao" d="M1.236 1.847C-.53 3.94-.265 7.066 1.826 8.831c2.092 1.766 5.22 1.501 6.985-.59 1.765-2.092 1.5-5.22-.591-6.985C7.29.471 6.155.088 5.026.088c-1.41 0-2.81.598-3.79 1.76"/>
        <path id="oeaxcq492aq" d="M1.255 1.82c-1.766 2.091-1.501 5.218.59 6.983 2.092 1.766 5.219 1.501 6.985-.59 1.765-2.092 1.5-5.22-.591-6.985C7.309.443 6.173.06 5.045.06c-1.41 0-2.81.598-3.79 1.76"/>
        <path id="yvqznvvc2as" d="M19.302 1.52L1.108 22.147C-.396 23.852-.171 26.4 1.61 27.84l.138.11c1.782 1.44 4.446 1.224 5.95-.481L25.893 6.843c1.504-1.706 1.279-4.255-.503-5.694l-.138-.11c-.792-.64-1.76-.953-2.72-.953-1.202 0-2.395.487-3.23 1.434"/>
        <path id="grzeys45dau" d="M1.309 1.99c-1.933 2.29-1.643 5.713.647 7.645 2.29 1.933 5.712 1.643 7.645-.647 1.932-2.29 1.642-5.712-.647-7.645C7.936.484 6.694.064 5.457.064 3.914.064 2.382.719 1.31 1.99"/>
        <path id="kd30sbaacaw" d="M0.029 41.276L4.345 44.941 38.949 3.685 34.633 0.019z"/>
        <path id="hbc68ewxpay" d="M1.753 2.558c-2.466 2.922-2.097 7.29.826 9.757 2.922 2.466 7.29 2.097 9.757-.825 2.466-2.923 2.097-7.291-.826-9.758C10.21.636 8.625.1 7.048.1c-1.97 0-3.925.835-5.295 2.458"/>
        <path id="ndd8vexe8aA" d="M4.871.012L.013.235s4.031 1.769 4.15 3.863c.118 2.094-1.41 6.432-2.126 7.613-.781 1.292 9.916-1.923 6.14-11.699H4.87z"/>
        <path id="r6lfg8y6yaD" d="M1.74.088C.82.088.071.84.071 1.768v35.487c0 .928.748 1.68 1.67 1.68h140.576c.921 0 1.668-.752 1.668-1.68V1.768c0-.928-.747-1.68-1.668-1.68H1.74z"/>
        <path id="3nltubynuaF" d="M1.74.106C.82.106.071.858.071 1.786v35.487c0 .927.748 1.68 1.67 1.68h140.576c.921 0 1.668-.753 1.668-1.68V1.786c0-.928-.747-1.68-1.668-1.68H1.74z"/>
        <path id="n5j1vzhz1aH" d="M.081 2.976c0 1.616 1.31 2.925 2.925 2.925 1.616 0 2.925-1.31 2.925-2.925 0-1.615-1.31-2.925-2.925-2.925C1.391.051.081 1.361.081 2.976"/>
        <path id="8nah5ai65aJ" d="M.09 2.976c0 1.616 1.31 2.925 2.926 2.925 1.615 0 2.925-1.31 2.925-2.925C5.94 1.361 4.63.051 3.016.051 1.4.051.09 1.361.09 2.976"/>
        <linearGradient id="l6le38zuhn" x1="32.904%" x2="135.485%" y1="32.72%" y2="196.895%">
            <stop offset="0%" stop-color="#FDBABA"/>
            <stop offset="100%" stop-color="#FF918E"/>
        </linearGradient>
        <linearGradient id="5oy2rwfsaq" x1="44.917%" x2="71.053%" y1="21.128%" y2="214.022%">
            <stop offset="0%" stop-color="#CA236D"/>
            <stop offset="100%" stop-color="#4B236D"/>
        </linearGradient>
        <linearGradient id="55roswej3v" x1="-152.111%" x2="-195.666%" y1="-256.339%" y2="-322.35%">
            <stop offset="0%"/>
            <stop offset="100%" stop-color="#1A0E90"/>
        </linearGradient>
        <linearGradient id="h6jhqb3prA" x1="-152.111%" x2="-195.666%" y1="-119.441%" y2="-155.952%">
            <stop offset="0%"/>
            <stop offset="100%" stop-color="#1A0E90"/>
        </linearGradient>
        <linearGradient id="n5er414bjJ" x1="-255.482%" x2="297.146%" y1="-352.417%" y2="375.568%">
            <stop offset="0%" stop-color="#08005D"/>
            <stop offset="100%" stop-color="#1A0E90"/>
        </linearGradient>
        <linearGradient id="9lt8upq8fO" x1="55.415%" x2="45.146%" y1="133.057%" y2="35.481%">
            <stop offset="0%" stop-color="#FDBABA"/>
            <stop offset="100%" stop-color="#FF918E"/>
        </linearGradient>
        <linearGradient id="bettbwx77R" x1="25.415%" x2="110.601%" y1="34.971%" y2="110.623%">
            <stop offset="0%" stop-color="#FDBABA"/>
            <stop offset="100%" stop-color="#FF918E"/>
        </linearGradient>
        <linearGradient id="53i8vgdc9U" x1="-52.011%" x2="-68.792%" y1="-1073.473%" y2="-1255.806%">
            <stop offset="0%" stop-color="#FDBABA"/>
            <stop offset="100%" stop-color="#FF918E"/>
        </linearGradient>
        <linearGradient id="yjp14h0ovZ" x1="43.385%" x2="76.798%" y1="-55.634%" y2="556.824%">
            <stop offset="0%" stop-color="#FDBABA"/>
            <stop offset="100%" stop-color="#FF918E"/>
        </linearGradient>
        <linearGradient id="wqfsrogmmae" x1="-26.122%" x2="128.535%" y1="-68.512%" y2="178.36%">
            <stop offset="0%" stop-color="#FDBABA"/>
            <stop offset="100%" stop-color="#FF918E"/>
        </linearGradient>
        <linearGradient id="y81tfs2iiaB" x1="5.573%" x2="141.03%" y1="-37.105%" y2="206.869%">
            <stop offset="0%" stop-color="#FDBABA"/>
            <stop offset="100%" stop-color="#FF918E"/>
        </linearGradient>
    </defs>
    <g fill="none" fill-rule="evenodd">
        <g>
            <g>
                <g transform="translate(-480 -200) translate(480 200) translate(2 1)">
                    <mask id="1r4vafxenb" fill="#fff">
                        <use xlink:href="#s4811ljkda"/>
                    </mask>
                    <path fill="#494949" d="M29.768 83.851C-18.737 158.597-5.877 264.66 54.252 318.224c31.235 27.824 66.515 33.722 79.383 35.702 79.084 12.168 170.278-32.94 204.513-113.46 22.311-52.477 19.74-117.566-10.168-164.286-12.737-19.895-26.869-32.436-33.277-37.714C251.08 2.534 201.44.486 188.487.154c-1.439-.037-2.874-.055-4.316-.055C125.348.099 64.226 30.75 29.768 83.85" mask="url(#1r4vafxenb)"/>
                </g>
                <g>
                    <path fill="#707070" d="M228.009 163.23s3.761-37.017 22.063-44.764c18.3-7.746 51.512-9.87 59.394-62.713 4.615-30.936 7.092-44.404 8.352-50.255.492-2.282-1.331-4.401-3.67-4.258-16.537 1.015-70.59 6.942-86.084 41.264-18.369 40.69-.055 120.726-.055 120.726" transform="translate(-480 -200) translate(480 200) translate(9)"/>
                    <path fill="#444" d="M299.8 14.424c-19.717 13.546-43.733 38.878-58.172 65.406-1.981 4.422-7.315 13.686-11.282 30.833-3.414 14.287-4.549 29.694-3.894 40.068.042.656.609 1.154 1.267 1.113 1.132-.07 1.134-1.274 1.12-1.238-.027-17.588 3.599-39.022 11.096-57.834 9.456-23.068 26.76-44.416 44.116-62.188l1.776-1.742c13.39-13.319 15.832-13.124 14.883-14.288-.224-.275-.623-.327-.91-.13" transform="translate(-480 -200) translate(480 200) translate(9)"/>
                    <g transform="translate(-480 -200) translate(480 200) translate(9) translate(175.718)">
                        <mask id="7bwnvbo61d" fill="#fff">
                            <use xlink:href="#p9pw20y5lc"/>
                        </mask>
                        <path fill="#565656" d="M62.878 213.877c-1.345 2.847-1.488-44.683-30.857-96.095C18.181 93.555-3.4 66.584.554 46.405 3.846 29.61 43.03 7.315 56.083.308c1.63-.876 3.548.533 3.185 2.344-1.792 8.925-4.818 29.02.861 42.312 7.486 17.52 1.137 37.522-9.116 49.74-10.252 12.217-15.136 20.034-5.444 44.278s21.133 66.802 17.31 74.895" mask="url(#7bwnvbo61d)"/>
                    </g>
                    <path fill="#444" d="M220.642 19.129c-14.042 12.19-24.336 31.23-22.303 49.93l.202 1.778c.5 4.147 6.544 31.65 14.229 52.315.096.257.383.389.641.293.44-.162.308-.681.302-.621-3.626-12.245-7.585-28.278-10.282-40.478-3.024-13.248-4.967-22.303.648-36.938 6.429-16.065 17.135-25.727 17.107-25.694.158-.154.16-.407.005-.564-.149-.151-.39-.158-.549-.021" transform="translate(-480 -200) translate(480 200) translate(9)"/>
                    <path fill="#565656" d="M237.109 174.997c-1.653.94 8.856-18.573 9.14-35.462.285-16.889 3.127-45.794 17.134-63.5 14.007-17.704 29.932-19.813 50.596-4.841 17.22 12.476 27.908 18.705 34.087 19.721 1.53.252 2.364 1.936 1.67 3.318-3.692 7.357-14.259 24.325-32.986 23.786-23.887-.688-53.299-15.157-61.667-1.98-8.368 13.178-6.993 20.348-7.057 26.462-.063 6.114.017 26.272-10.917 32.496" transform="translate(-480 -200) translate(480 200) translate(9)"/>
                    <path fill="#444" d="M307.916 92.09c-7.54-6.73-19.664-13.185-30.015-11.557-13.45 2.626-22.153 11.929-26.613 25.49-1.728 5.753-2.416 8.815-3.315 15.826-.072.56.758.698.877.15.715-3.302 1.418-6.76 2.522-10.347 6.352-23.121 21.463-26.715 22.04-27.204 1.154.075 7.95-5.362 24.799 2.954 3.147 1.572 6.22 3.384 9.115 5.399l.016.01c.21.147.498.096.644-.113.136-.193.102-.454-.07-.607" transform="translate(-480 -200) translate(480 200) translate(9)"/>
                    <path fill="#565656" d="M42.889 101.435c-4.147-1.696-7.75-4.475-10.418-8.036-.464-.62-.336-1.498.286-1.96.622-.464 1.503-.336 1.967.284 2.364 3.155 5.556 5.617 9.232 7.12 11.182 4.571 24.01-.773 28.597-11.914 2.223-5.397 2.203-11.334-.055-16.716-2.258-5.382-6.485-9.566-11.9-11.78-11.181-4.573-24.01.772-28.597 11.913-.594 1.442-1.034 2.945-1.307 4.466-.137.761-.866 1.27-1.632 1.132-.764-.137-1.273-.864-1.136-1.626.308-1.716.804-3.41 1.474-5.035 5.176-12.57 19.65-18.602 32.265-13.443 6.11 2.5 10.879 7.22 13.427 13.293 2.548 6.072 2.57 12.77.062 18.86-3.834 9.31-12.768 15.032-22.27 15.279-3.326.086-6.724-.5-9.995-1.837zm28.459 5.08l.628-.454c2.98-2.148 5.57-4.743 7.697-7.715l.45-.63 8.286.475 3.267-7.933-6.231-5.463.123-.763c.581-3.604.568-7.264-.04-10.879l-.128-.762 6.199-5.506-3.32-7.912-8.287.529-.454-.627c-2.156-2.97-4.76-5.55-7.742-7.67l-.632-.449.476-8.256-7.961-3.255-5.482 6.21-.766-.124c-3.616-.58-7.289-.566-10.917.04l-.765.128-5.525-6.177-7.94 3.307.53 8.258-.628.453c-2.98 2.148-5.57 4.744-7.697 7.715l-.45.63-8.285-.474-3.267 7.933 6.23 5.462-.122.763c-.582 3.604-.568 7.264.04 10.88l.127.762-6.198 5.506 3.32 7.911 8.286-.528.455.626c2.155 2.97 4.76 5.55 7.742 7.67l.632.45-.476 8.255 7.96 3.256 5.482-6.21.766.123c3.616.58 7.29.566 10.917-.04l.765-.127 5.526 6.177 7.94-3.308-.531-8.258zm-9.155 13.824l-4.852-5.425c-3.42.497-6.872.51-10.284.037l-4.812 5.452c-.582.66-1.522.88-2.338.546l-8.942-3.657c-.816-.333-1.33-1.147-1.28-2.024l.418-7.25c-2.761-2.052-5.21-4.477-7.292-7.224l-7.277.464c-.884.054-1.7-.45-2.04-1.262L9.765 91.11c-.34-.811-.126-1.748.532-2.333l5.443-4.835c-.498-3.408-.51-6.848-.037-10.247l-5.47-4.796c-.663-.58-.883-1.517-.549-2.33l3.67-8.91c.334-.813 1.152-1.325 2.032-1.276l7.274.417c2.06-2.752 4.494-5.191 7.25-7.267l-.465-7.252c-.057-.877.452-1.694 1.266-2.033l8.918-3.715c.813-.339 1.754-.126 2.34.53l4.853 5.424c3.419-.496 6.87-.509 10.283-.037l4.812-5.452c.583-.66 1.522-.88 2.338-.546l8.942 3.657c.816.333 1.33 1.147 1.28 2.024l-.418 7.25c2.76 2.052 5.209 4.477 7.293 7.225l7.277-.465c.881-.055 1.7.452 2.04 1.262l3.728 8.887c.34.81.126 1.748-.532 2.333l-5.443 4.835c.498 3.407.511 6.847.037 10.247l5.471 4.795c.663.58.883 1.517.548 2.33l-3.67 8.91c-.334.814-1.148 1.328-2.031 1.276l-7.275-.416c-2.06 2.75-4.493 5.19-7.25 7.267l.466 7.251c.056.878-.453 1.694-1.266 2.033l-8.918 3.716c-.24.1-.492.152-.743.158-.596.015-1.185-.227-1.598-.688z" transform="translate(-480 -200) translate(480 200) translate(9)"/>
                    <path fill="#BDBDBD" d="M45.934 74.171c-1.214 1.637-1.716 3.646-1.414 5.658.303 2.013 1.374 3.788 3.016 4.997 1.384 1.02 3.022 1.536 4.738 1.491 2.374-.061 4.545-1.187 5.955-3.087 1.214-1.636 1.716-3.646 1.413-5.658-.302-2.013-1.373-3.787-3.015-4.997-1.384-1.02-3.023-1.535-4.739-1.49-2.374.06-4.544 1.186-5.954 3.086m.488 12.157c-2.045-1.506-3.379-3.716-3.755-6.222-.377-2.506.248-5.008 1.76-7.045 1.755-2.366 4.457-3.767 7.413-3.844 2.137-.055 4.178.587 5.901 1.856 2.044 1.507 3.378 3.716 3.755 6.222.377 2.506-.249 5.008-1.76 7.046-1.756 2.366-4.458 3.767-7.413 3.843-2.138.056-4.179-.586-5.901-1.856" transform="translate(-480 -200) translate(480 200) translate(9)"/>
                    <path fill="#91B3FA" d="M9.387 108.191c.043 0 .087-.014.126-.04.107-.074.134-.22.06-.325-.22-.32-.437-.641-.65-.965-.07-.108-.215-.138-.324-.067-.108.07-.138.215-.067.323.214.326.433.651.655.973.047.068.123.103.2.101M102.696 89.858c-.126-.027-.206-.151-.179-.277.165-.761.314-1.536.444-2.303.021-.127.143-.214.27-.192.127.022.213.142.192.27-.131.774-.282 1.555-.448 2.323-.023.107-.117.181-.223.184-.018 0-.037-.001-.056-.005m-1.229 4.548c-.123-.039-.192-.17-.153-.293.234-.742.454-1.5.654-2.252.033-.125.162-.2.286-.166.125.033.2.16.167.285-.202.76-.424 1.524-.66 2.273-.03.098-.12.161-.218.164-.025 0-.05-.003-.076-.01m-1.643 4.416c-.12-.05-.176-.187-.126-.306.303-.72.592-1.454.859-2.183.044-.121.18-.183.3-.14.122.045.184.18.14.3-.27.736-.561 1.477-.867 2.204-.036.087-.12.14-.21.143-.032 0-.065-.005-.096-.018m-2.044 4.248c-.114-.06-.157-.202-.097-.316.367-.687.722-1.393 1.056-2.095.056-.117.196-.167.312-.112.118.056.167.195.112.311-.337.71-.696 1.421-1.066 2.116-.04.076-.12.121-.2.123-.04.001-.08-.007-.117-.027m-2.423 4.046c-.109-.07-.139-.216-.068-.324.428-.652.846-1.322 1.243-1.991.066-.112.21-.149.321-.083.111.066.148.209.083.32-.401.676-.823 1.352-1.255 2.01-.044.067-.116.104-.19.106-.046 0-.093-.011-.134-.038m-83.304 4.743c-.504-.603-1-1.226-1.476-1.852-.079-.103-.058-.25.045-.327.103-.078.25-.058.328.045.472.62.964 1.238 1.463 1.836.083.099.07.246-.03.328-.042.035-.093.053-.144.054-.069.002-.138-.026-.186-.084m80.523-.932c-.101-.08-.118-.227-.038-.328.348-.44.692-.886 1.028-1.34.131-.177.262-.355.39-.533.076-.104.222-.128.327-.053.105.076.129.222.053.326-.13.18-.26.359-.393.537-.34.458-.686.91-1.038 1.353-.044.056-.11.086-.177.088-.053.002-.107-.015-.152-.05m-77.322 4.425c-.558-.555-1.11-1.13-1.64-1.71-.088-.095-.081-.243.014-.33.096-.087.244-.08.331.015.526.574 1.074 1.144 1.626 1.695.092.09.092.239 0 .33-.044.044-.101.067-.16.068-.061.002-.124-.021-.17-.068m74.21-.88c-.093-.09-.097-.237-.008-.33.539-.566 1.07-1.15 1.58-1.737.086-.098.234-.108.331-.023.098.084.109.231.024.329-.515.592-1.052 1.182-1.595 1.752-.045.047-.104.071-.164.073-.06.001-.12-.02-.167-.065M18.76 118.54c-.605-.501-1.207-1.024-1.79-1.554-.096-.086-.102-.234-.015-.33.087-.095.235-.102.33-.014.579.524 1.175 1.043 1.775 1.54.1.082.113.229.03.328-.045.054-.109.082-.174.084-.055.001-.11-.016-.156-.054m67.285-.821c-.085-.097-.076-.245.022-.33.585-.51 1.167-1.044 1.73-1.584.094-.09.243-.086.332.007.09.093.087.24-.007.33-.568.545-1.156 1.083-1.746 1.598-.043.038-.096.057-.149.058-.067.002-.134-.025-.182-.08m-63.503 3.683c-.469-.324-.935-.655-1.397-.996-.177-.13-.352-.261-.527-.393-.103-.078-.123-.225-.045-.327.078-.103.225-.123.328-.045l.523.39c.458.337.92.666 1.385.986.106.074.133.22.06.325-.045.064-.115.099-.188.1-.048.002-.096-.011-.139-.04m59.8-.763c-.076-.104-.053-.25.052-.326.632-.457 1.261-.934 1.87-1.42.102-.08.25-.064.33.037.08.101.064.248-.038.328-.614.49-1.25.972-1.887 1.433-.04.029-.085.043-.131.045-.075.001-.149-.032-.196-.097M26.57 123.91c-.686-.385-1.373-.792-2.042-1.21-.11-.068-.143-.212-.074-.321.069-.11.214-.143.323-.074.663.413 1.343.816 2.023 1.198.112.064.152.206.089.318-.042.074-.119.117-.199.119-.04.001-.082-.009-.12-.03m51.817-.702c-.066-.111-.03-.254.082-.32.673-.399 1.344-.817 1.993-1.244.108-.07.253-.04.325.067.07.108.04.253-.067.324-.655.43-1.332.852-2.012 1.254-.035.021-.075.032-.113.033-.082.002-.163-.039-.208-.114m-47.58 2.836c-.72-.322-1.44-.665-2.143-1.019-.115-.058-.162-.198-.104-.313.059-.115.2-.161.315-.104.697.351 1.412.691 2.124 1.01.118.053.17.191.118.309-.038.084-.12.135-.208.137-.034.001-.069-.005-.102-.02m43.403-.639c-.056-.116-.006-.255.11-.31.706-.335 1.412-.69 2.1-1.057.115-.06.256-.017.317.096.061.114.018.255-.096.316-.695.37-1.408.728-2.119 1.066-.03.014-.063.022-.094.023-.09.002-.177-.047-.218-.134m-38.987 2.377c-.744-.254-1.493-.529-2.228-.818-.12-.047-.18-.183-.132-.303.048-.12.184-.18.304-.131.728.286 1.47.56 2.208.81.122.042.187.175.146.297-.033.095-.121.155-.216.158-.027 0-.055-.003-.082-.013m34.625-.568c-.044-.12.017-.255.139-.3.733-.269 1.47-.558 2.188-.86.118-.05.256.005.307.124.05.12-.006.256-.125.306-.725.305-1.468.597-2.208.869-.025.009-.05.013-.075.014-.098.003-.19-.056-.226-.153M39.78 129.11c-.765-.185-1.536-.39-2.294-.611-.124-.037-.196-.166-.16-.29.037-.124.166-.195.291-.159.751.219 1.516.423 2.273.606.126.03.203.157.173.282-.026.105-.118.176-.222.178-.02 0-.04-.001-.061-.006m25.558-.489c-.033-.124.04-.253.166-.286.756-.203 1.516-.424 2.257-.66.124-.039.255.03.294.152.04.123-.029.254-.152.294-.748.236-1.514.46-2.278.665-.018.005-.036.007-.055.008-.105.002-.203-.067-.232-.173m-20.898 1.393c-.778-.114-1.566-.248-2.34-.399-.128-.024-.21-.147-.186-.274.025-.126.148-.208.275-.184.768.149 1.548.282 2.32.395.127.02.216.138.197.266-.017.113-.114.196-.226.199-.013 0-.027 0-.04-.003m16.28-.4c-.023-.127.062-.248.19-.27.77-.133 1.546-.285 2.308-.453.125-.027.252.052.28.178.027.126-.053.25-.18.278-.768.17-1.552.323-2.328.457l-.034.004c-.115.003-.217-.078-.237-.194m-11.556.877c-.785-.043-1.581-.105-2.367-.184-.129-.014-.222-.128-.21-.256.013-.128.13-.221.257-.21.779.08 1.568.141 2.346.184.129.007.228.117.22.246-.006.122-.106.217-.227.22h-.02m6.866-.305c-.01-.128.086-.24.215-.251.78-.063 1.567-.145 2.34-.243.128-.013.246.074.262.202.016.128-.075.245-.203.261-.78.1-1.574.182-2.361.245h-.014c-.123.004-.229-.09-.239-.214m-4.492.383c-.13-.002-.233-.107-.232-.236.001-.129.103-.239.237-.231.614.006 1.232 0 1.837-.015.18-.004.344-.01.516-.016h.002c.128-.003.236.097.24.225.005.13-.096.237-.226.242-.173.006-.345.014-.52.016-.61.016-1.234.02-1.854.015M103.54 85.197c.114-.003.212-.09.226-.206.047-.387.09-.776.128-1.164.013-.128-.081-.243-.21-.255-.13-.011-.243.08-.256.209-.038.385-.08.77-.127 1.155-.016.128.076.244.205.26h.034M92.907 47.096c.049-.001.097-.018.138-.05.102-.08.12-.226.04-.327-.241-.308-.487-.612-.736-.915-.082-.1-.23-.115-.33-.032-.1.082-.114.229-.032.328.247.3.49.602.73.906.047.06.119.092.19.09" transform="translate(-480 -200) translate(480 200) translate(9)"/>
                    <path fill="#BDBDBD" d="M53.69 27.32c-.768-.023-1.547-.029-2.315-.018-.13.002-.236-.1-.238-.23-.002-.128.1-.233.228-.236h.002c.776-.012 1.562-.006 2.337.018.13.003.231.111.227.24-.003.124-.104.223-.228.226h-.013m-7.195.048c-.013-.128.08-.243.209-.256.772-.08 1.556-.145 2.329-.19.128-.014.24.09.247.219.008.129-.09.24-.22.247-.766.045-1.542.109-2.307.188l-.019.001c-.12.003-.226-.087-.239-.209m11.813.298c-.764-.092-1.54-.167-2.305-.225-.13-.01-.226-.121-.216-.25.01-.128.118-.22.25-.215.774.057 1.556.134 2.327.226.128.016.22.132.204.26-.014.116-.112.202-.226.205l-.034-.001m-16.41.409c-.024-.127.059-.25.185-.274.76-.148 1.534-.282 2.303-.396.127-.022.247.069.266.196.02.128-.069.246-.197.265-.762.114-1.53.246-2.281.393-.014.002-.027.004-.04.004-.112.003-.213-.075-.235-.188m20.976.348c-.753-.16-1.519-.305-2.275-.43-.128-.02-.214-.141-.193-.268.022-.127.142-.215.27-.192.763.126 1.535.272 2.296.433.126.027.207.151.18.277-.023.108-.117.182-.223.185-.018 0-.036 0-.055-.005m-25.491.764c-.036-.124.035-.254.16-.29.741-.214 1.501-.416 2.257-.599.126-.031.252.047.283.172.03.126-.047.252-.173.282-.749.181-1.502.381-2.237.594-.02.006-.04.009-.06.009-.103.003-.2-.064-.23-.168m29.972.4c-.738-.227-1.487-.44-2.227-.632-.125-.032-.2-.16-.168-.285.032-.124.16-.198.286-.167.747.194 1.503.409 2.247.638.124.039.193.17.155.293-.03.098-.12.161-.218.164-.025 0-.05-.003-.075-.01m-34.368 1.108c-.047-.12.012-.255.133-.302.722-.281 1.46-.55 2.194-.798.123-.04.256.025.297.146.042.123-.024.255-.146.297-.727.246-1.459.511-2.175.79-.026.01-.053.015-.08.016-.095.002-.187-.054-.223-.149m38.724.454c-.712-.292-1.44-.572-2.16-.83-.122-.044-.185-.178-.141-.299.044-.121.178-.184.3-.14.727.26 1.46.542 2.18.838.12.049.176.185.127.305-.036.088-.12.142-.21.144-.032 0-.065-.005-.096-.018m-42.967 1.442c-.057-.116-.01-.256.105-.313.693-.344 1.405-.677 2.114-.99.119-.052.257 0 .31.118.052.118-.002.256-.12.308-.703.31-1.408.64-2.094.982-.032.015-.066.023-.099.024-.088.002-.174-.046-.216-.13m47.165.508c-.684-.355-1.382-.698-2.077-1.021-.117-.054-.168-.193-.114-.31.055-.117.194-.168.312-.113.701.325 1.406.672 2.095 1.03.115.06.16.201.1.315-.041.078-.12.124-.202.126-.039 0-.078-.007-.114-.027m-51.218 1.76c-.068-.11-.034-.253.077-.32.66-.406 1.339-.802 2.015-1.176.113-.063.256-.023.318.09.063.113.023.255-.09.318-.67.37-1.343.763-1.998 1.165-.036.022-.076.034-.116.035-.081.002-.16-.038-.206-.111m55.222.556c-.648-.414-1.313-.819-1.977-1.203-.111-.065-.15-.207-.085-.32.065-.11.209-.15.32-.084.67.388 1.342.796 1.995 1.214.109.07.14.214.07.323-.043.067-.116.105-.19.107-.046.001-.092-.01-.133-.037m-59.053 2.066c-.077-.103-.057-.25.047-.327.618-.462 1.258-.916 1.9-1.352.107-.073.253-.045.326.062.073.106.045.252-.062.324-.637.432-1.27.883-1.883 1.34-.04.03-.087.045-.134.047-.074.001-.147-.03-.194-.094m62.838.598c-.31-.24-.624-.476-.94-.71-.307-.225-.615-.447-.924-.664-.106-.075-.131-.22-.056-.326.074-.105.22-.13.326-.056.312.22.623.444.932.671.32.236.636.474.949.716.102.079.12.225.041.327-.044.058-.111.089-.18.09-.05.002-.104-.014-.148-.048m-66.415 2.357c-.087-.095-.079-.243.017-.33.577-.516 1.172-1.026 1.77-1.516.1-.082.248-.068.33.032.082.1.068.247-.032.329-.593.485-1.183.99-1.754 1.503-.043.038-.097.058-.15.06-.067.001-.133-.025-.181-.078m69.945.627c-.563-.52-1.146-1.036-1.732-1.531-.098-.084-.11-.23-.027-.33.084-.098.232-.11.33-.026.591.5 1.18 1.02 1.748 1.545.095.088.1.235.012.33-.044.048-.105.073-.166.075-.059.001-.118-.02-.165-.063m-73.241 2.64c-.095-.088-.1-.236-.013-.33.53-.57 1.078-1.131 1.627-1.671.093-.091.24-.09.332.002.09.092.09.24-.002.33-.546.535-1.088 1.093-1.613 1.656-.045.048-.105.073-.166.074-.059.002-.119-.019-.165-.062m76.49.648c-.515-.57-1.049-1.135-1.587-1.68-.091-.092-.09-.24.002-.33.092-.09.24-.09.331.003.544.55 1.083 1.12 1.602 1.695.087.096.079.243-.017.33-.043.038-.097.058-.151.06-.066.001-.132-.025-.18-.078m-79.482 2.9c-.102-.08-.121-.226-.042-.328.475-.612.97-1.22 1.471-1.808.084-.099.232-.11.33-.027.099.083.111.23.027.328-.496.584-.986 1.187-1.457 1.793-.045.058-.112.089-.18.09-.052.002-.105-.014-.15-.048m-2.667 3.8c-.109-.07-.14-.214-.07-.322.418-.65.857-1.3 1.306-1.932.074-.106.22-.131.326-.057.106.075.131.22.056.326-.444.627-.88 1.272-1.294 1.915-.044.067-.116.105-.191.107-.046.001-.092-.01-.133-.037m-2.317 4.02c-.115-.059-.16-.2-.1-.314.36-.685.738-1.372 1.128-2.04.065-.112.209-.15.32-.085.112.065.15.207.085.319-.386.663-.762 1.343-1.117 2.022-.04.078-.12.123-.202.125-.038.001-.078-.007-.114-.026m-1.945 4.212c-.12-.05-.177-.186-.128-.305.294-.713.61-1.43.939-2.133.054-.117.194-.168.311-.114.117.055.168.194.114.31-.326.697-.64 1.409-.93 2.115-.037.088-.122.142-.211.144-.032.001-.064-.005-.095-.017M2.51 63.653c-.124-.038-.193-.169-.155-.292.23-.74.48-1.483.742-2.21.044-.12.178-.183.3-.14.122.044.185.178.14.3-.259.718-.506 1.454-.734 2.188-.03.098-.12.162-.218.164-.025.001-.05-.002-.075-.01m-1.153 4.491c-.126-.026-.207-.15-.18-.277.161-.755.343-1.518.538-2.266.033-.125.16-.199.286-.167.125.033.2.16.168.285-.194.741-.374 1.497-.534 2.246-.023.107-.117.182-.222.184-.019 0-.037 0-.056-.005M.616 72.72c-.129-.015-.22-.131-.205-.26.093-.768.204-1.543.331-2.304.021-.128.14-.215.27-.192.127.02.214.14.192.268-.125.754-.236 1.523-.328 2.284-.014.117-.112.203-.226.206-.011 0-.023 0-.034-.002" transform="translate(-480 -200) translate(480 200) translate(9)"/>
                    <path fill="#91B3FA" d="M.349 76.217c.121-.003.221-.099.227-.222.02-.386.045-.772.074-1.158.01-.129-.087-.24-.216-.25-.13-.008-.242.087-.251.215-.03.39-.054.78-.074 1.17-.007.128.092.238.221.245H.35" transform="translate(-480 -200) translate(480 200) translate(9)"/>
                    <path fill="#565656" d="M123.588 72.144c-2.4-.981-4.484-2.59-6.028-4.651-.385-.514-.279-1.24.236-1.624.516-.383 1.245-.277 1.63.236 1.291 1.725 3.036 3.07 5.046 3.892 2.961 1.212 6.217 1.201 9.17-.03 2.953-1.23 5.249-3.533 6.464-6.483 1.215-2.95 1.204-6.196-.03-9.139-1.235-2.942-3.545-5.23-6.506-6.44-6.112-2.5-13.126.422-15.634 6.513-.325.789-.565 1.61-.714 2.442-.114.63-.715 1.049-1.351.937-.633-.112-1.055-.715-.941-1.346.178-.993.465-1.973.852-2.914 2.995-7.274 11.371-10.764 18.672-7.779 3.536 1.446 6.296 4.178 7.77 7.693 1.474 3.514 1.487 7.39.036 10.914s-4.193 6.273-7.72 7.742c-1.661.693-3.403 1.062-5.151 1.107-1.962.051-3.93-.306-5.8-1.07zm15.798 2.34l.521-.375c1.647-1.187 3.078-2.621 4.254-4.264l.373-.522 4.61.264 1.64-3.983-3.467-3.039.102-.632c.321-1.992.313-4.015-.022-6.013l-.106-.63 3.449-3.065-1.667-3.972-4.61.295-.377-.52c-1.191-1.641-2.631-3.067-4.279-4.238l-.523-.372.265-4.594-3.997-1.634-3.05 3.455-.634-.102c-1.999-.32-4.029-.312-6.034.022l-.633.106-3.075-3.437-3.986 1.66.295 4.595-.52.375c-1.648 1.188-3.08 2.623-4.254 4.264l-.373.522-4.61-.264-1.64 3.983 3.466 3.039-.101.632c-.321 1.992-.314 4.015.022 6.012l.106.632-3.45 3.063 1.667 3.973 4.611-.294.377.519c1.19 1.64 2.63 3.066 4.279 4.238l.522.372-.264 4.594 3.997 1.635 3.05-3.455.634.101c1.999.32 4.028.312 6.033-.022l.634-.106 3.075 3.437 3.986-1.66-.296-4.595zm-5.053 8.219l-2.603-2.91c-1.831.248-3.676.255-5.503.02l-2.583 2.926c-.432.489-1.13.652-1.737.404l-5.04-2.061c-.607-.248-.989-.854-.95-1.505l.223-3.889c-1.466-1.112-2.775-2.408-3.903-3.866l-3.901.249c-.651.056-1.264-.333-1.519-.938l-2.1-5.008c-.254-.603-.095-1.3.395-1.735l2.919-2.594c-.25-1.824-.256-3.664-.02-5.484l-2.935-2.573c-.491-.431-.655-1.127-.407-1.731l2.069-5.022c.248-.604.853-.982 1.509-.949l3.903.224c1.115-1.46 2.416-2.765 3.88-3.89l-.25-3.89c-.041-.651.337-1.258.941-1.51l5.027-2.094c.606-.254 1.305-.095 1.74.394l2.603 2.909c1.83-.248 3.677-.256 5.504-.02l2.581-2.925c.433-.49 1.131-.652 1.738-.405l5.04 2.061c.607.248.99.853.952 1.505l-.224 3.888c1.465 1.112 2.774 2.409 3.902 3.867l3.904-.249c.645-.043 1.263.336 1.516.938l2.101 5.009c.253.602.095 1.3-.395 1.734l-2.92 2.594c.25 1.824.257 3.663.02 5.484l2.935 2.573c.492.431.656 1.127.407 1.731l-2.068 5.023c-.249.603-.85.984-1.51.948l-3.903-.224c-1.115 1.461-2.417 2.766-3.88 3.89l.25 3.888c.043.653-.336 1.261-.941 1.512l-5.028 2.095c-.179.074-.365.112-.55.117-.444.012-.882-.168-1.19-.511z" transform="translate(-480 -200) translate(480 200) translate(9)"/>
                    <path fill="#BDBDBD" d="M125.957 56.81c-.583.786-.825 1.752-.679 2.719.145.967.66 1.82 1.449 2.401.665.49 1.452.737 2.276.716 1.14-.03 2.184-.57 2.862-1.483 1.204-1.623.859-3.92-.77-5.12-.665-.49-1.452-.737-2.276-.716-1.141.03-2.184.57-2.862 1.483m-.614 6.985c-1.29-.95-2.13-2.342-2.368-3.922-.237-1.58.157-3.158 1.11-4.442 1.107-1.492 2.81-2.375 4.673-2.423 1.348-.035 2.635.369 3.72 1.17 2.662 1.96 3.226 5.713 1.258 8.364-1.107 1.492-2.81 2.375-4.673 2.423-1.347.035-2.634-.37-3.72-1.17" transform="translate(-480 -200) translate(480 200) translate(9)"/>
                    <path fill="#91B3FA" d="M105.309 76.414c.057-.002.114-.02.163-.056.13-.094.159-.275.064-.405-.283-.388-.556-.782-.818-1.18-.089-.135-.269-.17-.403-.084-.135.088-.172.268-.084.401.267.408.546.81.835 1.205.058.08.15.121.243.119" transform="translate(-480 -200) translate(480 200) translate(9)"/>
                    <path fill="#BDBDBD" d="M156.207 69.38c-.151-.056-.228-.223-.172-.373.343-.922.642-1.871.888-2.822.04-.156.2-.247.355-.21.155.04.249.199.209.354-.25.97-.556 1.94-.907 2.88-.042.114-.15.186-.265.189-.036.001-.073-.005-.108-.018m-2.707 5.326c-.136-.086-.177-.264-.092-.4.526-.833 1.014-1.702 1.451-2.582.072-.144.246-.203.39-.132.144.071.203.245.132.389-.446.898-.943 1.784-1.48 2.634-.054.085-.145.133-.24.135-.054.002-.11-.013-.161-.044m-3.734 4.669c-.116-.111-.12-.295-.008-.41.682-.709 1.335-1.46 1.943-2.236.099-.127.282-.15.409-.05.126.097.149.28.05.406-.62.792-1.287 1.559-1.983 2.282-.055.057-.128.087-.202.089-.075.001-.15-.025-.209-.081m-40.651 1.4c-.747-.671-1.467-1.39-2.141-2.136-.108-.119-.098-.302.022-.41.12-.107.303-.097.41.022.66.73 1.366 1.435 2.099 2.094.119.108.128.29.02.41-.055.061-.13.093-.208.095-.072.002-.145-.023-.202-.074m36.044 2.41c-.091-.132-.057-.312.075-.402.815-.555 1.61-1.158 2.36-1.793.123-.103.307-.088.41.034.105.122.09.305-.033.408-.767.648-1.577 1.263-2.408 1.83-.048.032-.102.049-.156.05-.096.002-.19-.042-.248-.126m-31.167 1.156c-.864-.506-1.715-1.065-2.53-1.661-.13-.095-.157-.276-.062-.406.095-.129.278-.156.407-.062.799.585 1.633 1.133 2.48 1.63.139.08.185.258.104.396-.053.09-.147.14-.244.143-.052.002-.106-.011-.155-.04m25.871 1.632c-.061-.148.009-.317.157-.38.912-.376 1.813-.804 2.68-1.271.143-.076.319-.024.395.117.077.14.024.317-.117.393-.885.477-1.805.913-2.734 1.298-.034.014-.07.02-.104.022-.117.003-.23-.065-.277-.18m-20.367.876c-.953-.32-1.9-.695-2.817-1.112-.146-.066-.21-.239-.143-.384.067-.146.239-.21.385-.144.899.41 1.828.776 2.761 1.09.152.052.234.216.183.368-.04.119-.15.194-.268.197-.034 0-.068-.004-.101-.015m14.611.779c-.03-.157.074-.31.232-.34.969-.183 1.94-.42 2.884-.701.155-.047.317.041.362.195.046.153-.04.314-.195.36-.964.288-1.954.529-2.942.716-.016.004-.032.005-.047.005-.14.004-.266-.093-.294-.235m-8.708.547c-1.002-.12-2.007-.291-2.986-.511-.156-.036-.255-.19-.22-.347.036-.156.193-.256.348-.219.96.215 1.945.384 2.927.5.16.02.274.164.254.323-.017.145-.139.252-.28.256-.015 0-.029 0-.043-.002m3.022.203c-.16-.003-.289-.135-.286-.295.002-.16.131-.278.295-.286.992.016 1.992-.018 2.968-.103.158-.02.3.104.315.264.014.159-.104.3-.265.313-.588.051-1.188.085-1.785.1-.414.01-.828.013-1.242.007" transform="translate(-480 -200) translate(480 200) translate(9)"/>
                    <path fill="#91B3FA" d="M157.814 63.591c.139-.003.259-.106.28-.247.072-.484.132-.967.18-1.452.016-.16-.101-.302-.261-.317-.16-.013-.302.1-.318.26-.047.475-.106.95-.177 1.424-.023.158.086.306.245.33.017.002.034.003.05.002M151.927 41.33c.06 0 .12-.021.172-.06.126-.1.148-.282.05-.408-.302-.383-.613-.76-.936-1.13-.105-.12-.289-.134-.41-.029-.122.105-.135.288-.03.41.316.362.622.731.917 1.107.06.075.148.113.237.11" transform="translate(-480 -200) translate(480 200) translate(9)"/>
                    <path fill="#BDBDBD" d="M124.151 30.271c-.024-.158.085-.307.244-.331.978-.151 1.975-.254 2.963-.307.163-.005.297.114.306.274.009.16-.114.297-.275.305-.968.052-1.946.153-2.905.301l-.038.004c-.144.003-.272-.1-.295-.246m9.067.216c-.96-.143-1.938-.238-2.908-.284-.16-.008-.284-.143-.276-.303.007-.16.136-.285.304-.276.989.046 1.987.144 2.966.29.159.023.269.171.244.33-.02.14-.14.243-.28.246-.016 0-.033 0-.05-.003m-14.755 1.319c-.056-.15.02-.317.171-.373.93-.343 1.885-.643 2.842-.89.155-.043.315.051.355.207.04.155-.053.313-.208.353-.938.244-1.876.537-2.786.874-.031.011-.063.017-.094.018-.121.003-.236-.07-.28-.19m20.409.121c-.912-.333-1.85-.624-2.79-.863-.156-.04-.25-.197-.21-.353.039-.155.2-.249.353-.209.96.244 1.917.54 2.847.88.151.056.228.222.173.373-.042.114-.15.187-.265.19-.036 0-.073-.005-.108-.018m-25.672 2.52c-.085-.137-.044-.315.092-.4.838-.521 1.714-1.006 2.605-1.442.144-.071.318-.011.39.133.07.144.01.317-.134.388-.873.427-1.732.902-2.552 1.413-.046.028-.096.042-.147.044-.1.002-.198-.046-.254-.137m30.918.029c-.827-.51-1.688-.984-2.559-1.407-.144-.07-.204-.244-.134-.388.07-.143.245-.204.39-.133.888.431 1.766.914 2.61 1.435.136.084.178.263.093.399-.053.086-.145.135-.24.137-.055.001-.11-.012-.16-.043m-35.538 3.615c-.11-.116-.106-.3.01-.41.716-.68 1.476-1.332 2.258-1.936.127-.098.31-.075.408.052.099.126.076.308-.051.407-.767.592-1.512 1.23-2.213 1.896-.055.052-.124.079-.194.08-.079.003-.159-.027-.218-.09m40.169-.074c-.705-.66-1.454-1.294-2.227-1.885-.128-.098-.152-.28-.054-.407.098-.127.28-.15.408-.053.788.602 1.552 1.249 2.27 1.922.118.11.124.293.014.41-.056.059-.13.09-.205.091-.074.002-.148-.024-.206-.078m-43.962 4.57c-.131-.091-.163-.272-.071-.403.157-.225.318-.449.483-.67.426-.575.878-1.14 1.34-1.678.105-.122.29-.136.41-.032.123.105.137.288.032.41-.453.527-.896 1.08-1.314 1.644-.162.218-.32.437-.474.658-.055.078-.142.121-.232.124-.06.001-.12-.016-.174-.052m-2.819 5.158c-.147-.063-.215-.234-.151-.38.392-.907.836-1.804 1.318-2.664.078-.14.255-.19.396-.112.14.078.19.254.112.394-.472.844-.907 1.723-1.292 2.611-.047.107-.15.172-.26.175-.04.001-.082-.006-.123-.024m-1.716 5.62c-.157-.033-.259-.187-.226-.343.2-.967.453-1.934.751-2.875.048-.152.211-.237.365-.189.153.048.238.211.19.364-.292.921-.54 1.87-.736 2.817-.028.135-.145.228-.277.231-.022.001-.044-.001-.067-.006" transform="translate(-480 -200) translate(480 200) translate(9)"/>
                    <path fill="#91B3FA" d="M99.755 57.745c.15-.004.275-.123.283-.275.025-.477.062-.954.11-1.43.017-.16-.1-.302-.26-.318-.162-.013-.302.1-.319.259-.05.486-.087.972-.112 1.46-.008.16.115.295.276.304h.022" transform="translate(-480 -200) translate(480 200) translate(9)"/>
                </g>
                <path fill="#37363B" d="M164 336L196 336 196 304 164 304z" transform="translate(-480 -200) translate(480 200)"/>
                <g transform="translate(-480 -200) translate(480 200) translate(0 92)">
                    <mask id="sowppnh33f" fill="#fff">
                        <use xlink:href="#me68mixf4e"/>
                    </mask>
                    <path fill="#000" d="M4.628 4.669C1.574 7.717-.098 11.884.004 16.199l4.642 196.539c0 3.438 2.813 6.252 6.251 6.252h338.026c3.438 0 6.25-2.814 6.25-6.252l2.813-194.464c0-3.438-4.046-10.151-11.463-9.647L16.168.07c-.136-.005-.273-.005-.409-.005-4.168 0-8.172 1.652-11.13 4.604" mask="url(#sowppnh33f)"/>
                </g>
                <g transform="translate(-480 -200) translate(480 200) translate(7 98)">
                    <mask id="kgg23cpxgh" fill="#fff">
                        <use xlink:href="#c8f7ze25zg"/>
                    </mask>
                    <path fill="#16151A" d="M3.35 3.234C1.206 5.343.036 8.228.112 11.213L4.815 196.08c0 3.204 2.658 5.825 5.907 5.825h323.663c3.25 0 5.907-2.621 5.907-5.825l2.652-173.673c-.313-10.452-9.606-14.208-15.239-13.986L11.447.055c-.099-.004-.197-.004-.296-.004-2.921 0-5.728 1.142-7.801 3.183" mask="url(#kgg23cpxgh)"/>
                </g>
                <g fill="#FFF">
                    <path d="M114.816 105.996h-.012c-.446-.007-.801-.371-.794-.813l.21-14.285c.007-.441.373-.763.818-.788.446.006.802.37.795.812l-.212 14.285c-.006.438-.366.789-.805.789M115.334 70.99h-.012c-.446-.006-.801-.37-.795-.812l.81-54.712c-.016-3.27-1.016-5.88-2.974-7.742-3.649-3.47-9.437-3.291-9.685-3.284L.868 1.73C.423 1.719.072 1.35.084.908.096.474.454.13.89.13L.912.13l101.754 2.71c.631-.03 6.746-.14 10.812 3.728 2.286 2.175 3.454 5.171 3.47 8.906l-.809 54.728c-.006.437-.366.788-.805.788" transform="translate(-480 -200) translate(480 200) translate(230 108)"/>
                </g>
                <g transform="translate(-480 -200) translate(480 200) translate(98 331)">
                    <mask id="rh2n5gja9j" fill="#fff">
                        <use xlink:href="#o4uppmk2mi"/>
                    </mask>
                    <path fill="#37363B" d="M5.439.017C2.463.017.052 2.083.052 4.881c0 2.378 2.05 4.104 4.578 4.104h151.726c2.529 0 4.607-2.118 4.607-4.497v-.76c0-2.378-2.078-3.71-4.607-3.71H5.439z" mask="url(#rh2n5gja9j)"/>
                </g>
                <g transform="translate(-480 -200) translate(480 200) translate(26 121)">
                    <mask id="eq3jkdmarl" fill="#fff">
                        <use xlink:href="#67ph94uexk"/>
                    </mask>
                    <path fill="#24232B" d="M13.214.029c-4.9 0-8.908 3.883-9.042 8.76L.117 156.624c-.141 5.154 4.085 9.374 9.263 9.248l285.692-6.924c4.908-.118 8.825-4.114 8.825-9.002V9.034c0-4.974-4.05-9.005-9.046-9.005H13.214z" mask="url(#eq3jkdmarl)"/>
                </g>
                <g fill="#8B8B8B">
                    <path d="M23.798 15.429c-.393-.227-.56-.227-.953 0-.393.226-.319.645-.319 1.099v38.884c0 .453-.074.872.319 1.099.392.226.718.226 1.11 0l33.596-19.442c.393-.227.595-.646.595-1.1 0-.453-.281-.872-.674-1.098L23.798 15.429z" transform="translate(-480 -200) translate(480 200) translate(143 158)"/>
                    <path d="M36.002 2.067C17.308 2.067 2.1 17.276 2.1 35.97c0 18.693 15.208 33.902 33.902 33.902 18.694 0 33.903-15.209 33.903-33.902 0-18.694-15.209-33.903-33.903-33.903M.101 35.97C.1 16.174 16.206.068 36.002.068c19.796 0 35.902 16.106 35.902 35.902S55.798 71.87 36.002 71.87.101 55.766.101 35.97z" transform="translate(-480 -200) translate(480 200) translate(143 158)"/>
                </g>
                <g transform="translate(-480 -200) translate(480 200) translate(259 255)">
                    <mask id="ynutil3nqo" fill="#fff">
                        <use xlink:href="#2lhsxjauwm"/>
                    </mask>
                    <path fill="url(#l6le38zuhn)" d="M.076 9.307l5.797 2.587c5.118-.45 9.063-1.907 12.092-3.756-1.823-4.148-3.675-6.61-5.13-8.051C8.072 6.219.077 9.307.077 9.307" mask="url(#ynutil3nqo)"/>
                </g>
                <g transform="translate(-480 -200) translate(480 200) translate(273 237)">
                    <mask id="gdgcx3kk7r" fill="#fff">
                        <use xlink:href="#4kay7vbevp"/>
                    </mask>
                    <path fill="url(#5oy2rwfsaq)" d="M.11 17.833c1.488 1.622 3.383 4.39 5.25 9.058 7.736-5.19 9.618-13.13 9.618-13.13L6.269.065C5.7 7.79 3.104 13.597.11 17.833" mask="url(#gdgcx3kk7r)"/>
                </g>
                <g transform="translate(-480 -200) translate(480 200) translate(285 350)">
                    <mask id="p6iu6q2njt" fill="#fff">
                        <use xlink:href="#qoab95mjns"/>
                    </mask>
                    <path fill="#24232B" d="M13.09.321C8.31 1.917 2.6 5.926.122 7.77c2.722.146 6.8.273 11.012.071 4.611-.222 6.2-1.21 6.744-1.918C17.481 1.882 16.37.116 16.37.116l-3.28.205z" mask="url(#p6iu6q2njt)"/>
                </g>
                <g transform="translate(-480 -200) translate(480 200) translate(285 356)">
                    <mask id="y7x2qmizvw" fill="#fff">
                        <use xlink:href="#v0omnifvvu"/>
                    </mask>
                    <path fill="url(#55roswej3v)" d="M11.23 1.85c-4.153.19-8.174.07-10.858-.067l-.033.024C-.1 2.117.1 2.801.637 2.83c.61.032 1.316.046 2.09.046h.007c4.39 0 10.915-.45 13.805-.668.838-.063 1.46-.792 1.392-1.624-.015-.183-.033-.357-.051-.531-.536.664-2.103 1.59-6.65 1.798" mask="url(#y7x2qmizvw)"/>
                </g>
                <g transform="translate(-480 -200) translate(480 200) translate(328 350)">
                    <mask id="pndpng4qoy" fill="#fff">
                        <use xlink:href="#v5oot3e5ox"/>
                    </mask>
                    <path fill="#24232B" d="M1.135.612c-.358.803-.82 3.946-1.109 6.12-.06.453.028.885.216 1.24l7.687-.316c.005-.18-.03-.366-.116-.54-.74-1.516-1.834-3.75-2.23-4.534C4.964 1.35 3.616.612 3.616.612s-.853-.56-1.588-.56c-.367 0-.705.14-.892.56" mask="url(#pndpng4qoy)"/>
                </g>
                <g transform="translate(-480 -200) translate(480 200) translate(328 358)">
                    <mask id="qyi8m55lnB" fill="#fff">
                        <use xlink:href="#80jmn0zw8z"/>
                    </mask>
                    <path fill="url(#h6jhqb3prA)" d="M.004.311c.287.417.804.697 1.4.682L7.05.853c.506-.013.865-.384.878-.792L.004.31z" mask="url(#qyi8m55lnB)"/>
                </g>
                <g transform="translate(-480 -200) translate(480 200) translate(327 343)">
                    <mask id="zf9ep9hkbD" fill="#fff">
                        <use xlink:href="#bdb27nlwaC"/>
                    </mask>
                    <path fill="#0C0B10" d="M.041 1.152c.076.242 1.21 5.48 1.707 7.778.137.635.738 1.081 1.418 1.049.372-.018.804-.05 1.257-.106.804-.099 1.417-.738 1.448-1.51.08-2.013.12-5.88-.657-7.377-.338-.654-.98-.878-1.7-.878C1.959.108.041 1.152.041 1.152" mask="url(#zf9ep9hkbD)"/>
                </g>
                <g transform="translate(-480 -200) translate(480 200) translate(298 343)">
                    <mask id="qoepa36z1F" fill="#fff">
                        <use xlink:href="#ci630jt8eE"/>
                    </mask>
                    <path fill="#0C0B10" d="M.648 6.599c.063.692.608 1.23 1.288 1.286.451.037.896.044 1.271.04.58-.008.995-.453 1.16-1.02.729-2.513.054-5.07.536-5.054L.054.081.648 6.6z" mask="url(#qoepa36z1F)"/>
                </g>
                <g transform="translate(-480 -200) translate(480 200) translate(289 278)">
                    <mask id="wl7q2zx4gH" fill="#fff">
                        <use xlink:href="#l1s1r75xuG"/>
                    </mask>
                    <path fill="#676767" d="M.063 3C.27 4.008 7.595 46.589 8.039 68.62c.008.37.28.68.648.731.93.13 2.74.295 4.496-.03.24-.043.422-.24.437-.484.256-4.106 2.315-38.822-.207-55.164 0 0 20.826 43.685 23.983 55.73.077.294.347.491.65.475.892-.047 2.747-.207 4.22-.747.528-.193.828-.747.695-1.291C41.197 60.63 28.837 10.964 20.444.02L.063 3z" mask="url(#wl7q2zx4gH)"/>
                </g>
                <g transform="translate(-480 -200) translate(480 200) translate(300 288)">
                    <mask id="gq9t4zgygK" fill="#fff">
                        <use xlink:href="#7dbla7pkgI"/>
                    </mask>
                    <path fill="url(#n5er414bjJ)" d="M.119.1C.027.19.025.336.115.43l2.378 2.43c.046.048.106.071.167.071.059 0 .117-.022.163-.067.092-.09.093-.237.004-.329L.448.103C.403.056.342.033.282.033.223.033.164.055.119.1" mask="url(#gq9t4zgygK)"/>
                </g>
                <g transform="translate(-480 -200) translate(480 200) translate(276 223)">
                    <mask id="ukn8k54d9M" fill="#fff">
                        <use xlink:href="#8m49huitsL"/>
                    </mask>
                    <path fill="#353535" d="M2.316 3.26c-.558.151-.99.56-1.317 1.155-2.1 3.816.063 15.264.063 15.264C4.747 34.03 9.06 46.669 13.994 57.617c6.585 1.002 13.26-.278 19.993-3.039-2.995-10.977-4.586-29.843-5.75-51.104-.1-1.834-1.519-3.283-3.288-3.393-.722-.044-1.46-.065-2.212-.065-7.268 0-15.665 1.953-20.42 3.244" mask="url(#ukn8k54d9M)"/>
                </g>
                <g transform="translate(-480 -200) translate(480 200) translate(282 212)">
                    <mask id="omde66g87P" fill="#fff">
                        <use xlink:href="#9u4ccrm52N"/>
                    </mask>
                    <path fill="url(#9lt8upq8fO)" d="M.275 2.094L.037 13.152c-.013.611.361 1.174.932 1.364 3.468 1.154 6.65-.104 8.142-.885.546-.286.866-.875.8-1.497C9.504 8.303 8.141.02 8.141.02L.275 2.094z" mask="url(#omde66g87P)"/>
                </g>
                <g transform="translate(-480 -200) translate(480 200) translate(278 203)">
                    <mask id="fzglj4z8qS" fill="#fff">
                        <use xlink:href="#xx5m0ogeuQ"/>
                    </mask>
                    <path fill="url(#bettbwx77R)" d="M.257 9.667c-.18 3.298-.88 5.438 2.874 6.102 3.753.664 6.916-1.236 8.629-4.521 0 0 2.684-5.062 2.082-7.135C13.24 2.04 3.13.085 3.13.085S.438 6.37.257 9.667" mask="url(#fzglj4z8qS)"/>
                </g>
                <g transform="translate(-480 -200) translate(480 200) translate(318 253)">
                    <mask id="g428q9b8rV" fill="#fff">
                        <use xlink:href="#hc1a8q4lkT"/>
                    </mask>
                    <path fill="url(#53i8vgdc9U)" d="M.019 1.135C2.556 8.787 1.127 16.99 1.127 16.99l3.345.959S8.794 12.425 7.805.168C7.115.055 6.433.006 5.771.006c-2.294 0-4.35.589-5.752 1.13" mask="url(#g428q9b8rV)"/>
                </g>
                <g transform="translate(-480 -200) translate(480 200) translate(301 224)">
                    <mask id="wqu7gjstdX" fill="#fff">
                        <use xlink:href="#27n4a95h3W"/>
                    </mask>
                    <path fill="#353535" d="M.062.574l.57 17.97c9.505 1.269 14.003 6.67 16.054 12.384 1.912-.68 4.973-1.441 8.24-.946-.117-1.348-.302-2.774-.577-4.29C21.958 12.472 4.892 2.304.876.077.79.03.7.007.61.007.317.007.051.248.062.574" mask="url(#wqu7gjstdX)"/>
                </g>
                <g transform="translate(-480 -200) translate(480 200) translate(247 271)">
                    <mask id="mb62q0eyzaa" fill="#fff">
                        <use xlink:href="#vnq2lfqi6Y"/>
                    </mask>
                    <path fill="url(#yjp14h0ovZ)" d="M1.456.03C.018.177.002 2.022.147 3.22c.075.618.446 1.172 1.026 1.513 2.782 1.756 5.257 3.101 6.77 3.16l-1.279-1.1-.792-2.887S3.716.021 1.625.021c-.056 0-.112.003-.169.008" mask="url(#mb62q0eyzaa)"/>
                </g>
                <g transform="translate(-480 -200) translate(480 200) translate(277 194)">
                    <mask id="9ipgymf25ac" fill="#fff">
                        <use xlink:href="#s4x14yj4rab"/>
                    </mask>
                    <path fill="#3C3C3C" d="M1.303 1.992c-4.3 5.59 3.784 13.166 11.12 11.026.45 1.254-.792 3.731-.792 3.731h1.406c.14 0 .25.124.241.26l-.166 2.626c-.007.114.07.215.183.243.422.106 1.54.213 3.43-.772 1.848-.963 1.135-1.685.657-1.99-.136-.085-.137-.276-.012-.376 2.639-2.106 3.13-4.666 1.927-5.653-.692-.567-1.21-.477-1.533-.285-.164.098-.369-.005-.374-.192-.003-.132-.018-.258-.032-.384.33-.867-1.628-4.434-7.683-5.16-.661-.135-1.229-.295-1.712-.468C5.117 3.302 4.89.008 3.616.008 3.1.009 2.41.553 1.303 1.993" mask="url(#9ipgymf25ac)"/>
                </g>
                <g transform="translate(-480 -200) translate(480 200) translate(289 209)">
                    <mask id="nqyub5i13af" fill="#fff">
                        <use xlink:href="#n7jpkvo64ad"/>
                    </mask>
                    <path fill="url(#wqfsrogmmae)" d="M.107 3.16L.483 4.9C1.658 4.75 3.879 1.419 2.417.306 2.237.17 2.067.11 1.906.11.759.11.107 3.16.107 3.16" mask="url(#nqyub5i13af)"/>
                </g>
                <g transform="translate(-480 -200) translate(480 200) translate(221 220)">
                    <mask id="lmsbvlcr5ah" fill="#fff">
                        <use xlink:href="#p313rw8tcag"/>
                    </mask>
                    <path fill="#494949" d="M21.22 4.534L3.005 26.124C-1.47 31.43-.8 39.365 4.505 43.844l79.545 67.168c5.305 4.48 13.235 3.809 17.713-1.499l18.213-21.59c4.477-5.307 3.806-13.241-1.499-17.72L38.932 3.034c-2.36-1.992-5.237-2.966-8.1-2.966-3.575 0-7.127 1.518-9.613 4.465" mask="url(#lmsbvlcr5ah)"/>
                </g>
                <g transform="translate(-480 -200) translate(480 200) translate(228 248)">
                    <mask id="lrcoz9b01aj" fill="#fff">
                        <use xlink:href="#n3y1l9yf9ai"/>
                    </mask>
                    <path fill="#555" d="M1.196 1.846C-.577 3.92-.312 7.02 1.789 8.77c2.1 1.75 5.241 1.487 7.014-.586 1.774-2.073 1.508-5.172-.593-6.922C7.276.483 6.136.102 5.002.102c-1.416 0-2.822.593-3.806 1.744" mask="url(#lrcoz9b01aj)"/>
                </g>
                <g transform="translate(-480 -200) translate(480 200) translate(258 238)">
                    <mask id="yz6kafo8cal" fill="#fff">
                        <use xlink:href="#x3hp053hgak"/>
                    </mask>
                    <path fill="#555" d="M1.238 1.825c-1.765 2.091-1.5 5.218.59 6.984 2.093 1.765 5.22 1.5 6.985-.591 1.765-2.092 1.5-5.219-.59-6.984C7.291.448 6.156.064 5.027.064c-1.41 0-2.81.599-3.79 1.76" mask="url(#yz6kafo8cal)"/>
                </g>
                <g transform="translate(-480 -200) translate(480 200) translate(240 258)">
                    <mask id="3o8ixyfe4an" fill="#fff">
                        <use xlink:href="#uyuarafd2am"/>
                    </mask>
                    <path fill="#555" d="M1.366 1.796c-1.919 2.092-1.631 5.22.643 6.985 2.274 1.765 5.673 1.5 7.592-.591 1.919-2.092 1.631-5.219-.643-6.984C7.948.42 6.713.037 5.486.036c-1.532 0-3.054.599-4.12 1.76" mask="url(#3o8ixyfe4an)"/>
                </g>
                <g transform="translate(-480 -200) translate(480 200) translate(302 274)">
                    <mask id="pdfgtwb7nap" fill="#fff">
                        <use xlink:href="#l6spgrdchao"/>
                    </mask>
                    <path fill="#555" d="M1.236 1.847C-.53 3.94-.265 7.066 1.826 8.831c2.092 1.766 5.22 1.501 6.985-.59 1.765-2.092 1.5-5.22-.591-6.985C7.29.471 6.155.088 5.026.088c-1.41 0-2.81.598-3.79 1.76" mask="url(#pdfgtwb7nap)"/>
                </g>
                <g transform="translate(-480 -200) translate(480 200) translate(284 295)">
                    <mask id="5pazxtsl5ar" fill="#fff">
                        <use xlink:href="#oeaxcq492aq"/>
                    </mask>
                    <path fill="#555" d="M1.255 1.82c-1.766 2.091-1.501 5.218.59 6.983 2.092 1.766 5.219 1.501 6.985-.59 1.765-2.092 1.5-5.22-.591-6.985C7.309.443 6.173.06 5.045.06c-1.41 0-2.81.598-3.79 1.76" mask="url(#5pazxtsl5ar)"/>
                </g>
                <g transform="translate(-480 -200) translate(480 200) translate(274 266)">
                    <mask id="18ovhtljzat" fill="#fff">
                        <use xlink:href="#yvqznvvc2as"/>
                    </mask>
                    <path fill="#555" d="M19.302 1.52L1.108 22.147C-.396 23.852-.171 26.4 1.61 27.84l.138.11c1.782 1.44 4.446 1.224 5.95-.481L25.893 6.843c1.504-1.706 1.279-4.255-.503-5.694l-.138-.11c-.792-.64-1.76-.953-2.72-.953-1.202 0-2.395.487-3.23 1.434" mask="url(#18ovhtljzat)"/>
                </g>
                <g transform="translate(-480 -200) translate(480 200) translate(301 291)">
                    <mask id="y1mnnbjhyav" fill="#fff">
                        <use xlink:href="#grzeys45dau"/>
                    </mask>
                    <path fill="#555" d="M1.309 1.99c-1.933 2.29-1.643 5.713.647 7.645 2.29 1.933 5.712 1.643 7.645-.647 1.932-2.29 1.642-5.712-.647-7.645C7.936.484 6.694.064 5.457.064 3.914.064 2.382.719 1.31 1.99" mask="url(#y1mnnbjhyav)"/>
                </g>
                <g transform="translate(-480 -200) translate(480 200) translate(301 286)">
                    <mask id="ibcrru6olax" fill="#fff">
                        <use xlink:href="#kd30sbaacaw"/>
                    </mask>
                    <path fill="#3B3B3B" d="M0.029 41.276L4.345 44.941 38.949 3.685 34.633 0.019z" mask="url(#ibcrru6olax)"/>
                </g>
                <path fill="#555" d="M261.793 276.816c5.698 4.81 14.215 4.089 19.024-1.609 4.808-5.698 4.088-14.215-1.61-19.023-5.698-4.81-14.215-4.089-19.023 1.609-4.81 5.698-4.089 14.215 1.609 19.023" transform="translate(-480 -200) translate(480 200)"/>
                <g transform="translate(-480 -200) translate(480 200) translate(264 259)">
                    <mask id="rveejpxy7az" fill="#fff">
                        <use xlink:href="#hbc68ewxpay"/>
                    </mask>
                    <path fill="#676767" d="M1.753 2.558c-2.466 2.922-2.097 7.29.826 9.757 2.922 2.466 7.29 2.097 9.757-.825 2.466-2.923 2.097-7.291-.826-9.758C10.21.636 8.625.1 7.048.1c-1.97 0-3.925.835-5.295 2.458" mask="url(#rveejpxy7az)"/>
                </g>
                <g fill="#8B8B8B">
                    <path d="M41.442 18.673c.402-.51.127-1.197-.45-1.667-.625-.51-1.318-.605-1.712-.105-.39.495-.183 1.158.446 1.672.625.51 1.323.6 1.716.1m.593.45c-.761.967-1.975 1.005-2.939.22-.916-.748-1.189-1.903-.424-2.874.754-.956 1.905-1.085 2.96-.225.887.724 1.195 1.875.403 2.88M40.374 14.418l.578-.733 1.05.856.56-.005-.758-1.933.681-.864.948 2.646 2.222.035-.715.907-1.654-.129c-.172-.02-.348-.036-.529-.065l-.011.015 1.422 1.16-.578.733-3.216-2.623zM5.691 5.454C6.838 4.07 6.665 1.997 5.307.83 4.648.265 3.813-.005 2.955.069c-.292.025-.508.286-.483.583.024.297.28.517.573.491.576-.05 1.136.133 1.578.512.912.783 1.028 2.175.258 3.103-.77.928-2.138 1.046-3.05.263-.442-.38-.712-.911-.76-1.498-.025-.297-.282-.517-.574-.492-.291.026-.508.286-.483.583.072.873.475 1.666 1.133 2.23 1.359 1.167 3.397.992 4.544-.39" transform="translate(-480 -200) translate(480 200) translate(230 250)"/>
                    <path d="M2.928 4.022c.23.198.59.15.803-.107l.045-.055c.213-.256.294-.74.063-.937L1.433.857C1.203.659.748.82.535 1.077l-.045.055c-.213.257-.199.626.032.824l2.406 2.066z" transform="translate(-480 -200) translate(480 200) translate(230 250)"/>
                </g>
                <g transform="translate(-480 -200) translate(480 200) translate(315 269)">
                    <mask id="8zzsh3b4gaC" fill="#fff">
                        <use xlink:href="#ndd8vexe8aA"/>
                    </mask>
                    <path fill="url(#y81tfs2iiaB)" d="M4.871.012L.013.235s4.031 1.769 4.15 3.863c.118 2.094-1.41 6.432-2.126 7.613-.781 1.292 9.916-1.923 6.14-11.699H4.87z" mask="url(#8zzsh3b4gaC)"/>
                </g>
                <g>
                    <path fill="#000" d="M227.63 7.996c-.038-.036-3.696-3.718-.012-7.942l.327.284c-3.413 3.913-.152 7.212-.011 7.35l-.305.308z" transform="translate(-480 -200) translate(480 200) translate(53 195)"/>
                    <path fill="#8B8B8B" d="M40.771 83.329c-2.202 1.813-5.473 1.501-7.29-.694-1.82-2.196-1.507-5.459.695-7.272 2.202-1.814 5.473-1.502 7.291.694 1.819 2.196 1.506 5.458-.696 7.272m-8.765-10.587c-3.65 3.006-4.169 8.416-1.154 12.057 3.014 3.64 8.438 4.157 12.09 1.15 3.65-3.005 4.168-8.415 1.153-12.056-3.014-3.64-8.438-4.157-12.089-1.151M55.542 64.467c-8.226-9.936-23.025-11.346-32.987-3.141-.755.621-1.458 1.282-2.112 1.975-.49.52-.454 1.34.087 1.805l1.99 1.713c.503.433 1.257.395 1.713-.087.49-.517 1.013-1.01 1.577-1.475 7.79-6.414 19.358-5.312 25.79 2.456.399.482.766.978 1.104 1.488.456.685 1.425.775 1.976.164l1.803-2c.393-.436.422-1.084.082-1.563-.322-.454-.662-.9-1.023-1.335" transform="translate(-480 -200) translate(480 200) translate(53 195)"/>
                    <path fill="#8B8B8B" d="M14.146 51.169c-1.351 1.112-2.596 2.306-3.742 3.563-.466.51-.403 1.31.121 1.762l1.985 1.708c.506.435 1.27.402 1.72-.09.973-1.062 2.027-2.07 3.17-3.012 13.406-11.038 33.316-9.142 44.384 4.227l.01.011c.483.585 1.37.617 1.878.053l1.769-1.961.037-1.647c-12.911-15.267-35.854-17.36-51.332-4.614" transform="translate(-480 -200) translate(480 200) translate(53 195)"/>
                    <path fill="#8B8B8B" d="M74.334 45.904C56.573 26.412 26.312 24.069 5.737 41.012c-1.933 1.592-3.705 3.305-5.33 5.112-.464.515-.402 1.314.124 1.766l1.982 1.707c.517.445 1.288.385 1.745-.121 1.445-1.601 3.019-3.12 4.734-4.532 18.525-15.255 45.802-13.092 61.72 4.558.5.554 1.364.568 1.863.014l1.755-1.946c.426-.472.432-1.196.004-1.666" transform="translate(-480 -200) translate(480 200) translate(53 195)"/>
                </g>
                <g transform="translate(-480 -200) translate(480 200) translate(34 318)">
                    <mask id="i9o8n0idnaE" fill="#fff">
                        <use xlink:href="#r6lfg8y6yaD"/>
                    </mask>
                    <path fill="#5D5D5D" d="M1.74.088C.82.088.071.84.071 1.768v35.487c0 .928.748 1.68 1.67 1.68h140.576c.921 0 1.668-.752 1.668-1.68V1.768c0-.928-.747-1.68-1.668-1.68H1.74z" mask="url(#i9o8n0idnaE)"/>
                </g>
                <g transform="translate(-480 -200) translate(480 200) translate(34 319)">
                    <mask id="rn4xoxf9yaG" fill="#fff">
                        <use xlink:href="#3nltubynuaF"/>
                    </mask>
                    <path fill="#212025" d="M1.74.106C.82.106.071.858.071 1.786v35.487c0 .927.748 1.68 1.67 1.68h140.576c.921 0 1.668-.753 1.668-1.68V1.786c0-.928-.747-1.68-1.668-1.68H1.74z" mask="url(#rn4xoxf9yaG)"/>
                </g>
                <g transform="translate(-480 -200) translate(480 200) translate(41 326)">
                    <mask id="0zpmojmknaI" fill="#fff">
                        <use xlink:href="#n5j1vzhz1aH"/>
                    </mask>
                    <path fill="#4B4B4B" d="M.081 2.976c0 1.616 1.31 2.925 2.925 2.925 1.616 0 2.925-1.31 2.925-2.925 0-1.615-1.31-2.925-2.925-2.925C1.391.051.081 1.361.081 2.976" mask="url(#0zpmojmknaI)"/>
                </g>
                <g transform="translate(-480 -200) translate(480 200) translate(50 326)">
                    <mask id="mlgx6yhgzaK" fill="#fff">
                        <use xlink:href="#8nah5ai65aJ"/>
                    </mask>
                    <path fill="#4B4B4B" d="M.09 2.976c0 1.616 1.31 2.925 2.926 2.925 1.615 0 2.925-1.31 2.925-2.925C5.94 1.361 4.63.051 3.016.051 1.4.051.09 1.361.09 2.976" mask="url(#mlgx6yhgzaK)"/>
                </g>
            </g>
        </g>
    </g>
</svg>
